<svg xmlns="http://www.w3.org/2000/svg" version="1.1" xmlns:xlink="http://www.w3.org/1999/xlink" xmlns:svgjs="http://svgjs.dev/svgjs" width="1500" height="1100" viewBox="0 0 1500 1500"><rect width="1500" height="1500" fill="#00000000"></rect><g transform="matrix(0.6666666666666666,0,0,0.6666666666666666,249.39393939393938,446.0032636783911)"><svg viewBox="0 0 396 241" data-background-color="#ffffff" preserveAspectRatio="xMidYMid meet" height="912" width="1500" xmlns="http://www.w3.org/2000/svg" xmlns:xlink="http://www.w3.org/1999/xlink"><g id="tight-bounds" transform="matrix(1,0,0,1,0.2400000000000091,-0.0012936619938130889)"><svg viewBox="0 0 395.52 241.02435971991045" height="241.02435971991045" width="395.52"><g><svg viewBox="0 0 395.52 241.02435971991045" height="241.02435971991045" width="395.52"><g transform="matrix(1,0,0,1,0,146.49876348038038)"><svg viewBox="0 0 395.52 94.52559623953007" height="94.52559623953007" width="395.52"><g id="textblocktransform"><svg viewBox="0 0 395.52 94.52559623953007" height="94.52559623953007" width="395.52" id="textblock"><g><svg viewBox="0 0 395.52 67.20034852060263" height="67.20034852060263" width="395.52"><g transform="matrix(1,0,0,1,0,0)"><svg width="395.52" viewBox="5.4 -37.1 275.43 46.800000000000004" height="67.20034852060263" data-palette-color="#bb84e8"><path d="M20-35.3Q26.8-35.3 30.73-31.33 34.65-27.35 34.65-19.85L34.65-19.85 34.65 0 31 0 31-10.3 9-10.3 9 0 5.4 0 5.4-19.85Q5.4-27.35 9.33-31.33 13.25-35.3 20-35.3L20-35.3ZM9-13.5L31-13.5 31-20.2Q31-26.05 28.1-29.03 25.2-32 20-32L20-32Q14.8-32 11.9-29.03 9-26.05 9-20.2L9-20.2 9-13.5ZM65.15 0.25Q61.95 0.25 59.02-0.68 56.1-1.6 54.45-3L54.45-3 56.05-5.8Q57.7-4.5 60.2-3.68 62.7-2.85 65.4-2.85L65.4-2.85Q69-2.85 70.72-3.98 72.45-5.1 72.45-7.15L72.45-7.15Q72.45-8.6 71.5-9.43 70.55-10.25 69.1-10.68 67.65-11.1 65.25-11.5L65.25-11.5Q62.05-12.1 60.1-12.73 58.15-13.35 56.77-14.85 55.4-16.35 55.4-19L55.4-19Q55.4-22.3 58.15-24.4 60.9-26.5 65.8-26.5L65.8-26.5Q68.35-26.5 70.9-25.83 73.45-25.15 75.1-24.05L75.1-24.05 73.55-21.2Q70.3-23.45 65.8-23.45L65.8-23.45Q62.4-23.45 60.67-22.25 58.95-21.05 58.95-19.1L58.95-19.1Q58.95-17.6 59.92-16.7 60.9-15.8 62.35-15.38 63.8-14.95 66.35-14.5L66.35-14.5Q69.5-13.9 71.4-13.3 73.3-12.7 74.65-11.25 76-9.8 76-7.25L76-7.25Q76-3.8 73.12-1.78 70.25 0.25 65.15 0.25L65.15 0.25ZM102.69-26.3L106.24-26.3 106.24 0 102.84 0 102.84-4.8Q101.44-2.4 98.99-1.07 96.54 0.25 93.39 0.25L93.39 0.25Q88.24 0.25 85.27-2.63 82.29-5.5 82.29-11.05L82.29-11.05 82.29-26.3 85.84-26.3 85.84-11.4Q85.84-7.25 87.89-5.1 89.94-2.95 93.74-2.95L93.74-2.95Q97.89-2.95 100.29-5.48 102.69-8 102.69-12.5L102.69-12.5 102.69-26.3ZM129.74-26.5Q133.44-26.5 136.44-24.83 139.44-23.15 141.14-20.1 142.84-17.05 142.84-13.15L142.84-13.15Q142.84-9.2 141.14-6.15 139.44-3.1 136.47-1.43 133.49 0.25 129.74 0.25L129.74 0.25Q126.54 0.25 123.97-1.07 121.39-2.4 119.74-4.95L119.74-4.95 119.74 9.7 116.19 9.7 116.19-26.3 119.59-26.3 119.59-21.1Q121.19-23.7 123.82-25.1 126.44-26.5 129.74-26.5L129.74-26.5ZM129.49-2.9Q132.24-2.9 134.49-4.17 136.74-5.45 138.02-7.8 139.29-10.15 139.29-13.15L139.29-13.15Q139.29-16.15 138.02-18.48 136.74-20.8 134.49-22.1 132.24-23.4 129.49-23.4L129.49-23.4Q126.69-23.4 124.47-22.1 122.24-20.8 120.97-18.48 119.69-16.15 119.69-13.15L119.69-13.15Q119.69-10.15 120.97-7.8 122.24-5.45 124.47-4.17 126.69-2.9 129.49-2.9L129.49-2.9ZM163.64-26.5Q167.34-26.5 170.34-24.83 173.34-23.15 175.04-20.1 176.74-17.05 176.74-13.15L176.74-13.15Q176.74-9.2 175.04-6.15 173.34-3.1 170.36-1.43 167.39 0.25 163.64 0.25L163.64 0.25Q160.44 0.25 157.86-1.07 155.29-2.4 153.64-4.95L153.64-4.95 153.64 9.7 150.09 9.7 150.09-26.3 153.49-26.3 153.49-21.1Q155.09-23.7 157.71-25.1 160.34-26.5 163.64-26.5L163.64-26.5ZM163.39-2.9Q166.14-2.9 168.39-4.17 170.64-5.45 171.91-7.8 173.19-10.15 173.19-13.15L173.19-13.15Q173.19-16.15 171.91-18.48 170.64-20.8 168.39-22.1 166.14-23.4 163.39-23.4L163.39-23.4Q160.59-23.4 158.36-22.1 156.14-20.8 154.86-18.48 153.59-16.15 153.59-13.15L153.59-13.15Q153.59-10.15 154.86-7.8 156.14-5.45 158.36-4.17 160.59-2.9 163.39-2.9L163.39-2.9ZM191.39 0.25Q187.84 0.25 185.91-1.75 183.99-3.75 183.99-7.3L183.99-7.3 183.99-37.1 187.54-37.1 187.54-7.6Q187.54-5.25 188.64-4.03 189.74-2.8 191.94-2.8L191.94-2.8Q193.34-2.8 194.34-3.25L194.34-3.25 194.59-0.3Q193.04 0.25 191.39 0.25L191.39 0.25ZM199.43 0L199.43-26.3 202.98-26.3 202.98 0 199.43 0ZM201.23-32.05Q200.13-32.05 199.38-32.8 198.63-33.55 198.63-34.6L198.63-34.6Q198.63-35.6 199.38-36.35 200.13-37.1 201.23-37.1L201.23-37.1Q202.33-37.1 203.08-36.38 203.83-35.65 203.83-34.65L203.83-34.65Q203.83-33.55 203.08-32.8 202.33-32.05 201.23-32.05L201.23-32.05ZM224.13-2.9Q226.58-2.9 228.66-3.78 230.73-4.65 232.18-6.35L232.18-6.35 234.18-4.05Q232.43-1.95 229.83-0.85 227.23 0.25 224.08 0.25L224.08 0.25Q220.03 0.25 216.88-1.48 213.73-3.2 211.98-6.25 210.23-9.3 210.23-13.15L210.23-13.15Q210.23-17 211.91-20.05 213.58-23.1 216.53-24.8 219.48-26.5 223.23-26.5L223.23-26.5Q226.73-26.5 229.56-24.9 232.38-23.3 234.06-20.45 235.73-17.6 235.83-13.95L235.83-13.95 214.23-9.75Q215.23-6.55 217.86-4.73 220.48-2.9 224.13-2.9L224.13-2.9ZM223.23-23.45Q220.48-23.45 218.31-22.18 216.13-20.9 214.91-18.63 213.68-16.35 213.68-13.4L213.68-13.4Q213.68-12.65 213.73-12.3L213.73-12.3 232.28-15.9Q231.68-19.2 229.23-21.33 226.78-23.45 223.23-23.45L223.23-23.45ZM246.48-21.15Q247.73-23.8 250.2-25.15 252.68-26.5 256.33-26.5L256.33-26.5 256.33-23.05 255.48-23.1Q251.33-23.1 248.98-20.55 246.63-18 246.63-13.4L246.63-13.4 246.63 0 243.08 0 243.08-26.3 246.48-26.3 246.48-21.15ZM269.98 0.25Q266.78 0.25 263.85-0.68 260.93-1.6 259.28-3L259.28-3 260.88-5.8Q262.53-4.5 265.03-3.68 267.53-2.85 270.23-2.85L270.23-2.85Q273.83-2.85 275.55-3.98 277.28-5.1 277.28-7.15L277.28-7.15Q277.28-8.6 276.33-9.43 275.38-10.25 273.93-10.68 272.48-11.1 270.08-11.5L270.08-11.5Q266.88-12.1 264.93-12.73 262.98-13.35 261.6-14.85 260.23-16.35 260.23-19L260.23-19Q260.23-22.3 262.98-24.4 265.73-26.5 270.63-26.5L270.63-26.5Q273.18-26.5 275.73-25.83 278.28-25.15 279.93-24.05L279.93-24.05 278.38-21.2Q275.13-23.45 270.63-23.45L270.63-23.45Q267.23-23.45 265.5-22.25 263.78-21.05 263.78-19.1L263.78-19.1Q263.78-17.6 264.75-16.7 265.73-15.8 267.18-15.38 268.63-14.95 271.18-14.5L271.18-14.5Q274.33-13.9 276.23-13.3 278.13-12.7 279.48-11.25 280.83-9.8 280.83-7.25L280.83-7.25Q280.83-3.8 277.95-1.78 275.08 0.25 269.98 0.25L269.98 0.25Z" opacity="1" transform="matrix(1,0,0,1,0,0)" fill="#ffffff" class="wordmark-text-0" data-fill-palette-color="primary" id="text-0"></path></svg></g></svg></g><g transform="matrix(1,0,0,1,75.54432,83.06473799795242)"><svg viewBox="0 0 244.43135999999998 11.460858241577647" height="11.460858241577647" width="244.43135999999998"><g transform="matrix(1,0,0,1,0,0)"><svg width="244.43135999999998" viewBox="4.35 -35.65 973.5 45.65" height="11.460858241577647" data-palette-color="#b19dd0"><path d="M4.35 0L4.35-35.25 16.2-35.25Q24.65-35.25 29.28-30.68 33.9-26.1 33.9-17.65L33.9-17.65Q33.9-9.2 29.28-4.6 24.65 0 16.2 0L16.2 0 4.35 0ZM8.45-3.5L15.95-3.5Q29.65-3.5 29.65-17.65L29.65-17.65Q29.65-31.75 15.95-31.75L15.95-31.75 8.45-31.75 8.45-3.5ZM61.1-13.05L61.1-11.55 43.3-11.55Q43.5-7.3 45.6-5.13 47.7-2.95 51.55-2.95L51.55-2.95Q55.8-2.95 59.35-5.85L59.35-5.85 60.7-2.9Q59.1-1.4 56.6-0.53 54.1 0.35 51.5 0.35L51.5 0.35Q45.8 0.35 42.52-3 39.25-6.35 39.25-12.25L39.25-12.25Q39.25-16 40.7-18.88 42.15-21.75 44.77-23.35 47.4-24.95 50.75-24.95L50.75-24.95Q55.6-24.95 58.35-21.78 61.1-18.6 61.1-13.05L61.1-13.05ZM50.8-21.8Q47.6-21.8 45.67-19.8 43.75-17.8 43.4-14.15L43.4-14.15 57.55-14.15Q57.45-17.85 55.7-19.83 53.95-21.8 50.8-21.8L50.8-21.8ZM71.1 0L67.05 0 67.05-35.25 71.1-35.25 71.1 0ZM82.69 0L78.64 0 78.64-24.35 82.69-24.35 82.69 0ZM78.24-30.35L78.24-34.9 83.14-34.9 83.14-30.35 78.24-30.35ZM99.44-4.4L107.69-24.3 111.74-24.3 101.24 0 97.44 0 86.99-24.3 91.29-24.3 99.44-4.4ZM136.04-13.05L136.04-11.55 118.24-11.55Q118.44-7.3 120.54-5.13 122.64-2.95 126.49-2.95L126.49-2.95Q130.74-2.95 134.29-5.85L134.29-5.85 135.64-2.9Q134.04-1.4 131.54-0.53 129.04 0.35 126.44 0.35L126.44 0.35Q120.74 0.35 117.46-3 114.19-6.35 114.19-12.25L114.19-12.25Q114.19-16 115.64-18.88 117.09-21.75 119.71-23.35 122.34-24.95 125.69-24.95L125.69-24.95Q130.54-24.95 133.29-21.78 136.04-18.6 136.04-13.05L136.04-13.05ZM125.74-21.8Q122.54-21.8 120.61-19.8 118.69-17.8 118.34-14.15L118.34-14.15 132.49-14.15Q132.39-17.85 130.64-19.83 128.89-21.8 125.74-21.8L125.74-21.8ZM155.44-24.95L155.79-21.45 153.14-21.2Q149.39-20.85 147.71-18.85 146.04-16.85 146.04-13.9L146.04-13.9 146.04 0 141.99 0 141.99-24.35 145.94-24.35 145.94-20.1Q147.99-24.35 153.99-24.85L153.99-24.85 155.44-24.95ZM163.68 0L159.63 0 159.63-24.35 163.68-24.35 163.68 0ZM159.23-30.35L159.23-34.9 164.13-34.9 164.13-30.35 159.23-30.35ZM183.48-24.95Q192.23-24.95 192.23-15.3L192.23-15.3 192.23 0 188.18 0 188.18-15.05Q188.18-18.45 186.86-20 185.53-21.55 182.63-21.55L182.63-21.55Q179.28-21.55 177.28-19.5 175.28-17.45 175.28-13.95L175.28-13.95 175.28 0 171.23 0 171.23-24.35 175.23-24.35 175.23-20.35Q176.43-22.6 178.58-23.78 180.73-24.95 183.48-24.95L183.48-24.95ZM217.38-24.35L221.43-24.35 221.43-1.65Q221.43 3.8 218.63 6.58 215.83 9.35 210.33 9.35L210.33 9.35Q203.93 9.35 199.58 6.05L199.58 6.05 200.93 3.05Q203.38 4.65 205.53 5.35 207.68 6.05 210.33 6.05L210.33 6.05Q213.83 6.05 215.63 4.17 217.43 2.3 217.43-1.3L217.43-1.3 217.43-5.6Q216.38-3.25 214.2-2 212.03-0.75 209.08-0.75L209.08-0.75Q205.88-0.75 203.4-2.25 200.93-3.75 199.55-6.5 198.18-9.25 198.18-12.85L198.18-12.85Q198.18-16.45 199.55-19.2 200.93-21.95 203.4-23.45 205.88-24.95 209.08-24.95L209.08-24.95Q211.98-24.95 214.13-23.7 216.28-22.45 217.38-20.15L217.38-20.15 217.38-24.35ZM209.88-4.1Q213.38-4.1 215.38-6.43 217.38-8.75 217.38-12.85L217.38-12.85Q217.38-16.9 215.4-19.23 213.43-21.55 209.88-21.55L209.88-21.55Q206.33-21.55 204.3-19.23 202.28-16.9 202.28-12.85L202.28-12.85Q202.28-8.75 204.3-6.43 206.33-4.1 209.88-4.1L209.88-4.1ZM263.32-0.65Q264.42-0.3 265.27 0.53 266.12 1.35 267.02 2.8L267.02 2.8 270.37 8.2 266.92 10 262.77 3.25Q261.02 0.4 257.17 0.4L257.17 0.4Q252.27 0.4 248.65-1.8 245.02-4 243.07-8.05 241.12-12.1 241.12-17.6L241.12-17.6Q241.12-23.15 243.05-27.23 244.97-31.3 248.6-33.48 252.22-35.65 257.17-35.65L257.17-35.65Q262.07-35.65 265.7-33.48 269.32-31.3 271.27-27.23 273.22-23.15 273.22-17.65L273.22-17.65Q273.22-11.25 270.65-6.83 268.07-2.4 263.32-0.65L263.32-0.65ZM245.32-17.65Q245.32-10.7 248.45-6.9 251.57-3.1 257.17-3.1L257.17-3.1Q262.77-3.1 265.9-6.88 269.02-10.65 269.02-17.65L269.02-17.65Q269.02-24.65 265.92-28.4 262.82-32.15 257.17-32.15L257.17-32.15Q251.57-32.15 248.45-28.38 245.32-24.6 245.32-17.65L245.32-17.65ZM296.47-24.35L300.52-24.35 300.52 0 296.57 0 296.57-4.15Q295.42-1.95 293.35-0.8 291.27 0.35 288.67 0.35L288.67 0.35Q284.32 0.35 282.12-2.08 279.92-4.5 279.92-9.25L279.92-9.25 279.92-24.35 283.97-24.35 283.97-9.35Q283.97-6.1 285.27-4.58 286.57-3.05 289.37-3.05L289.37-3.05Q292.57-3.05 294.52-5.13 296.47-7.2 296.47-10.6L296.47-10.6 296.47-24.35ZM317.97-24.95Q322.62-24.95 324.89-22.58 327.17-20.2 327.17-15.35L327.17-15.35 327.17 0 323.22 0 323.22-4.15Q322.27-2 320.32-0.83 318.37 0.35 315.82 0.35L315.82 0.35Q313.47 0.35 311.49-0.6 309.52-1.55 308.37-3.25 307.22-4.95 307.22-7L307.22-7Q307.22-9.75 308.62-11.28 310.02-12.8 313.22-13.48 316.42-14.15 322.12-14.15L322.12-14.15 323.22-14.15 323.22-15.8Q323.22-18.85 321.97-20.23 320.72-21.6 317.92-21.6L317.92-21.6Q313.72-21.6 309.57-19L309.57-19 308.22-21.95Q310.12-23.3 312.79-24.13 315.47-24.95 317.97-24.95L317.97-24.95ZM316.37-2.85Q319.37-2.85 321.29-4.88 323.22-6.9 323.22-10.1L323.22-10.1 323.22-11.55 322.32-11.55Q317.92-11.55 315.62-11.18 313.32-10.8 312.34-9.93 311.37-9.05 311.37-7.35L311.37-7.35Q311.37-5.4 312.79-4.13 314.22-2.85 316.37-2.85L316.37-2.85ZM338.62 0L334.57 0 334.57-35.25 338.62-35.25 338.62 0ZM350.21 0L346.16 0 346.16-24.35 350.21-24.35 350.21 0ZM345.76-30.35L345.76-34.9 350.66-34.9 350.66-30.35 345.76-30.35ZM368.46-2.9Q369.56-2.9 370.66-3.05L370.66-3.05 370.46 0.15Q369.31 0.35 367.96 0.35L367.96 0.35Q363.56 0.35 361.34-1.95 359.11-4.25 359.11-8.35L359.11-8.35 359.11-21.15 354.36-21.15 354.36-24.35 359.11-24.35 359.11-31.75 363.16-31.75 363.16-24.35 370.06-24.35 370.06-21.15 363.16-21.15 363.16-8.65Q363.16-2.9 368.46-2.9L368.46-2.9ZM384.26-4.4L392.51-24.3 396.56-24.3 382.16 9 378.01 9 382.11-0.3 371.81-24.3 376.11-24.3 384.26-4.4ZM398.36-5.1L403.46-5.1 403.46-1.5Q403.46 0.6 402.78 2.33 402.11 4.05 400.46 5.7L400.46 5.7 398.56 4.25Q400.51 2.1 400.76 0L400.76 0 398.36 0 398.36-5.1ZM438.95 0.4Q433.95 0.4 430.25-1.78 426.55-3.95 424.58-8.03 422.6-12.1 422.6-17.65L422.6-17.65Q422.6-23.2 424.58-27.25 426.55-31.3 430.25-33.48 433.95-35.65 438.95-35.65L438.95-35.65Q442.6-35.65 445.65-34.52 448.7-33.4 450.95-31.2L450.95-31.2 449.4-28.05Q446.85-30.2 444.4-31.15 441.95-32.1 439-32.1L439-32.1Q433.2-32.1 430.03-28.33 426.85-24.55 426.85-17.65L426.85-17.65Q426.85-10.7 430.03-6.93 433.2-3.15 439-3.15L439-3.15Q441.95-3.15 444.4-4.1 446.85-5.05 449.4-7.2L449.4-7.2 450.95-4.05Q448.7-1.85 445.65-0.73 442.6 0.4 438.95 0.4L438.95 0.4ZM466.75 0.35Q463.3 0.35 460.67-1.2 458.05-2.75 456.62-5.63 455.2-8.5 455.2-12.3L455.2-12.3Q455.2-16.1 456.62-18.98 458.05-21.85 460.67-23.4 463.3-24.95 466.75-24.95L466.75-24.95Q470.2-24.95 472.85-23.4 475.5-21.85 476.92-18.98 478.35-16.1 478.35-12.3L478.35-12.3Q478.35-8.5 476.92-5.63 475.5-2.75 472.85-1.2 470.2 0.35 466.75 0.35L466.75 0.35ZM466.75-3Q470.35-3 472.27-5.38 474.2-7.75 474.2-12.3L474.2-12.3Q474.2-16.75 472.25-19.18 470.3-21.6 466.75-21.6L466.75-21.6Q463.2-21.6 461.25-19.18 459.3-16.75 459.3-12.3L459.3-12.3Q459.3-7.8 461.22-5.4 463.15-3 466.75-3L466.75-3ZM496.65-24.95Q505.4-24.95 505.4-15.3L505.4-15.3 505.4 0 501.35 0 501.35-15.05Q501.35-18.45 500.02-20 498.7-21.55 495.8-21.55L495.8-21.55Q492.45-21.55 490.45-19.5 488.45-17.45 488.45-13.95L488.45-13.95 488.45 0 484.4 0 484.4-24.35 488.4-24.35 488.4-20.35Q489.6-22.6 491.75-23.78 493.9-24.95 496.65-24.95L496.65-24.95ZM525.04-24.95Q533.79-24.95 533.79-15.3L533.79-15.3 533.79 0 529.74 0 529.74-15.05Q529.74-18.45 528.42-20 527.09-21.55 524.19-21.55L524.19-21.55Q520.84-21.55 518.84-19.5 516.84-17.45 516.84-13.95L516.84-13.95 516.84 0 512.79 0 512.79-24.35 516.79-24.35 516.79-20.35Q517.99-22.6 520.14-23.78 522.29-24.95 525.04-24.95L525.04-24.95ZM561.59-13.05L561.59-11.55 543.79-11.55Q543.99-7.3 546.09-5.13 548.19-2.95 552.04-2.95L552.04-2.95Q556.29-2.95 559.84-5.85L559.84-5.85 561.19-2.9Q559.59-1.4 557.09-0.53 554.59 0.35 551.99 0.35L551.99 0.35Q546.29 0.35 543.02-3 539.74-6.35 539.74-12.25L539.74-12.25Q539.74-16 541.19-18.88 542.64-21.75 545.27-23.35 547.89-24.95 551.24-24.95L551.24-24.95Q556.09-24.95 558.84-21.78 561.59-18.6 561.59-13.05L561.59-13.05ZM551.29-21.8Q548.09-21.8 546.17-19.8 544.24-17.8 543.89-14.15L543.89-14.15 558.04-14.15Q557.94-17.85 556.19-19.83 554.44-21.8 551.29-21.8L551.29-21.8ZM577.84 0.35Q574.24 0.35 571.59-1.2 568.94-2.75 567.51-5.58 566.09-8.4 566.09-12.2L566.09-12.2Q566.09-16 567.56-18.88 569.04-21.75 571.71-23.35 574.39-24.95 577.99-24.95L577.99-24.95Q580.44-24.95 582.79-24.08 585.14-23.2 586.59-21.75L586.59-21.75 585.24-18.75Q581.79-21.55 578.24-21.55L578.24-21.55Q574.49-21.55 572.39-19.1 570.29-16.65 570.29-12.2L570.29-12.2Q570.29-7.8 572.39-5.4 574.49-3 578.24-3L578.24-3Q581.79-3 585.24-5.8L585.24-5.8 586.59-2.8Q585.04-1.35 582.69-0.5 580.34 0.35 577.84 0.35L577.84 0.35ZM602.24-2.9Q603.33-2.9 604.43-3.05L604.43-3.05 604.24 0.15Q603.08 0.35 601.74 0.35L601.74 0.35Q597.33 0.35 595.11-1.95 592.88-4.25 592.88-8.35L592.88-8.35 592.88-21.15 588.13-21.15 588.13-24.35 592.88-24.35 592.88-31.75 596.93-31.75 596.93-24.35 603.83-24.35 603.83-21.15 596.93-21.15 596.93-8.65Q596.93-2.9 602.24-2.9L602.24-2.9ZM612.58 0L608.53 0 608.53-24.35 612.58-24.35 612.58 0ZM608.13-30.35L608.13-34.9 613.03-34.9 613.03-30.35 608.13-30.35ZM632.38-24.95Q641.13-24.95 641.13-15.3L641.13-15.3 641.13 0 637.08 0 637.08-15.05Q637.08-18.45 635.75-20 634.43-21.55 631.53-21.55L631.53-21.55Q628.18-21.55 626.18-19.5 624.18-17.45 624.18-13.95L624.18-13.95 624.18 0 620.13 0 620.13-24.35 624.13-24.35 624.13-20.35Q625.33-22.6 627.48-23.78 629.63-24.95 632.38-24.95L632.38-24.95ZM666.28-24.35L670.33-24.35 670.33-1.65Q670.33 3.8 667.53 6.58 664.73 9.35 659.23 9.35L659.23 9.35Q652.83 9.35 648.48 6.05L648.48 6.05 649.83 3.05Q652.28 4.65 654.43 5.35 656.58 6.05 659.23 6.05L659.23 6.05Q662.73 6.05 664.53 4.17 666.33 2.3 666.33-1.3L666.33-1.3 666.33-5.6Q665.28-3.25 663.1-2 660.93-0.75 657.98-0.75L657.98-0.75Q654.78-0.75 652.3-2.25 649.83-3.75 648.45-6.5 647.08-9.25 647.08-12.85L647.08-12.85Q647.08-16.45 648.45-19.2 649.83-21.95 652.3-23.45 654.78-24.95 657.98-24.95L657.98-24.95Q660.88-24.95 663.03-23.7 665.18-22.45 666.28-20.15L666.28-20.15 666.28-24.35ZM658.78-4.1Q662.28-4.1 664.28-6.43 666.28-8.75 666.28-12.85L666.28-12.85Q666.28-16.9 664.3-19.23 662.33-21.55 658.78-21.55L658.78-21.55Q655.23-21.55 653.2-19.23 651.18-16.9 651.18-12.85L651.18-12.85Q651.18-8.75 653.2-6.43 655.23-4.1 658.78-4.1L658.78-4.1ZM706.37 0.4Q701.37 0.4 697.67-1.78 693.97-3.95 692-8.03 690.02-12.1 690.02-17.65L690.02-17.65Q690.02-23.2 692-27.25 693.97-31.3 697.67-33.48 701.37-35.65 706.37-35.65L706.37-35.65Q710.02-35.65 713.07-34.52 716.12-33.4 718.37-31.2L718.37-31.2 716.82-28.05Q714.27-30.2 711.82-31.15 709.37-32.1 706.42-32.1L706.42-32.1Q700.62-32.1 697.45-28.33 694.27-24.55 694.27-17.65L694.27-17.65Q694.27-10.7 697.45-6.93 700.62-3.15 706.42-3.15L706.42-3.15Q709.37-3.15 711.82-4.1 714.27-5.05 716.82-7.2L716.82-7.2 718.37-4.05Q716.12-1.85 713.07-0.73 710.02 0.4 706.37 0.4L706.37 0.4ZM734.17 0.35Q730.72 0.35 728.09-1.2 725.47-2.75 724.04-5.63 722.62-8.5 722.62-12.3L722.62-12.3Q722.62-16.1 724.04-18.98 725.47-21.85 728.09-23.4 730.72-24.95 734.17-24.95L734.17-24.95Q737.62-24.95 740.27-23.4 742.92-21.85 744.34-18.98 745.77-16.1 745.77-12.3L745.77-12.3Q745.77-8.5 744.34-5.63 742.92-2.75 740.27-1.2 737.62 0.35 734.17 0.35L734.17 0.35ZM734.17-3Q737.77-3 739.69-5.38 741.62-7.75 741.62-12.3L741.62-12.3Q741.62-16.75 739.67-19.18 737.72-21.6 734.17-21.6L734.17-21.6Q730.62-21.6 728.67-19.18 726.72-16.75 726.72-12.3L726.72-12.3Q726.72-7.8 728.64-5.4 730.57-3 734.17-3L734.17-3ZM778.92-24.95Q787.02-24.95 787.02-15.3L787.02-15.3 787.02 0 782.97 0 782.97-15.1Q782.97-18.45 781.79-20 780.62-21.55 778.02-21.55L778.02-21.55Q774.97-21.55 773.22-19.5 771.47-17.45 771.47-13.9L771.47-13.9 771.47 0 767.42 0 767.42-15.1Q767.42-18.5 766.22-20.03 765.02-21.55 762.42-21.55L762.42-21.55Q759.37-21.55 757.62-19.5 755.87-17.45 755.87-13.9L755.87-13.9 755.87 0 751.82 0 751.82-24.35 755.82-24.35 755.82-20.5Q756.92-22.65 758.87-23.8 760.82-24.95 763.37-24.95L763.37-24.95Q769.02-24.95 770.82-20.15L770.82-20.15Q771.87-22.4 774.02-23.68 776.17-24.95 778.92-24.95L778.92-24.95ZM821.51-24.95Q829.61-24.95 829.61-15.3L829.61-15.3 829.61 0 825.56 0 825.56-15.1Q825.56-18.45 824.39-20 823.21-21.55 820.61-21.55L820.61-21.55Q817.56-21.55 815.81-19.5 814.06-17.45 814.06-13.9L814.06-13.9 814.06 0 810.01 0 810.01-15.1Q810.01-18.5 808.81-20.03 807.61-21.55 805.01-21.55L805.01-21.55Q801.96-21.55 800.21-19.5 798.46-17.45 798.46-13.9L798.46-13.9 798.46 0 794.41 0 794.41-24.35 798.41-24.35 798.41-20.5Q799.51-22.65 801.46-23.8 803.41-24.95 805.96-24.95L805.96-24.95Q811.61-24.95 813.41-20.15L813.41-20.15Q814.46-22.4 816.61-23.68 818.76-24.95 821.51-24.95L821.51-24.95ZM853.46-24.35L857.51-24.35 857.51 0 853.56 0 853.56-4.15Q852.41-1.95 850.34-0.8 848.26 0.35 845.66 0.35L845.66 0.35Q841.31 0.35 839.11-2.08 836.91-4.5 836.91-9.25L836.91-9.25 836.91-24.35 840.96-24.35 840.96-9.35Q840.96-6.1 842.26-4.58 843.56-3.05 846.36-3.05L846.36-3.05Q849.56-3.05 851.51-5.13 853.46-7.2 853.46-10.6L853.46-10.6 853.46-24.35ZM877.31-24.95Q886.06-24.95 886.06-15.3L886.06-15.3 886.06 0 882.01 0 882.01-15.05Q882.01-18.45 880.68-20 879.36-21.55 876.46-21.55L876.46-21.55Q873.11-21.55 871.11-19.5 869.11-17.45 869.11-13.95L869.11-13.95 869.11 0 865.06 0 865.06-24.35 869.06-24.35 869.06-20.35Q870.26-22.6 872.41-23.78 874.56-24.95 877.31-24.95L877.31-24.95ZM897.51 0L893.46 0 893.46-24.35 897.51-24.35 897.51 0ZM893.06-30.35L893.06-34.9 897.96-34.9 897.96-30.35 893.06-30.35ZM915.75-2.9Q916.85-2.9 917.95-3.05L917.95-3.05 917.75 0.15Q916.6 0.35 915.25 0.35L915.25 0.35Q910.85 0.35 908.63-1.95 906.4-4.25 906.4-8.35L906.4-8.35 906.4-21.15 901.65-21.15 901.65-24.35 906.4-24.35 906.4-31.75 910.45-31.75 910.45-24.35 917.35-24.35 917.35-21.15 910.45-21.15 910.45-8.65Q910.45-2.9 915.75-2.9L915.75-2.9ZM926.1 0L922.05 0 922.05-24.35 926.1-24.35 926.1 0ZM921.65-30.35L921.65-34.9 926.55-34.9 926.55-30.35 921.65-30.35ZM954.05-13.05L954.05-11.55 936.25-11.55Q936.45-7.3 938.55-5.13 940.65-2.95 944.5-2.95L944.5-2.95Q948.75-2.95 952.3-5.85L952.3-5.85 953.65-2.9Q952.05-1.4 949.55-0.53 947.05 0.35 944.45 0.35L944.45 0.35Q938.75 0.35 935.47-3 932.2-6.35 932.2-12.25L932.2-12.25Q932.2-16 933.65-18.88 935.1-21.75 937.72-23.35 940.35-24.95 943.7-24.95L943.7-24.95Q948.55-24.95 951.3-21.78 954.05-18.6 954.05-13.05L954.05-13.05ZM943.75-21.8Q940.55-21.8 938.62-19.8 936.7-17.8 936.35-14.15L936.35-14.15 950.5-14.15Q950.4-17.85 948.65-19.83 946.9-21.8 943.75-21.8L943.75-21.8ZM968.25 0.35Q962.1 0.35 958.5-2.8L958.5-2.8 959.85-5.8Q961.8-4.25 963.82-3.58 965.85-2.9 968.4-2.9L968.4-2.9Q971.1-2.9 972.52-3.83 973.95-4.75 973.95-6.5L973.95-6.5Q973.95-7.95 973-8.8 972.05-9.65 969.85-10.15L969.85-10.15 965.75-11.1Q962.65-11.8 961-13.5 959.35-15.2 959.35-17.7L959.35-17.7Q959.35-20.95 961.9-22.95 964.45-24.95 968.7-24.95L968.7-24.95Q971.25-24.95 973.55-24.13 975.85-23.3 977.4-21.75L977.4-21.75 976.05-18.8Q972.7-21.65 968.7-21.65L968.7-21.65Q966.15-21.65 964.72-20.68 963.3-19.7 963.3-17.95L963.3-17.95Q963.3-16.5 964.17-15.63 965.05-14.75 967-14.3L967-14.3 971.15-13.3Q974.55-12.5 976.2-10.88 977.85-9.25 977.85-6.65L977.85-6.65Q977.85-3.45 975.27-1.55 972.7 0.35 968.25 0.35L968.25 0.35Z" opacity="1" transform="matrix(1,0,0,1,0,0)" fill="#ffffff" class="slogan-text-1" data-fill-palette-color="secondary" id="text-1"></path></svg></g></svg></g></svg></g></svg></g><g transform="matrix(1,0,0,1,139.3376233257377,0)"><svg viewBox="0 0 116.8447533485246 130.6343740030306" height="130.6343740030306" width="116.8447533485246"><g><svg xmlns="http://www.w3.org/2000/svg" xmlns:xlink="http://www.w3.org/1999/xlink" version="1.1" x="8" y="0" viewBox="15.706661446767527 5.389000166814984 69.47733855323247 90.00099983318502" enable-background="new 0 0 100 100" xml:space="preserve" height="130.6343740030306" width="100.8447533485246" class="icon-icon-0" data-fill-palette-color="accent" id="icon-0"><g fill="#b19dd0" data-fill-palette-color="accent"><circle cx="26.498" cy="13.474" r="8.1" fill="#ffffff" data-fill-palette-color="accent"></circle><path d="M82.184 79.008H58.867l-4.574-26.837c-0.003-0.016-0.01-0.029-0.013-0.044-0.022-0.121-0.061-0.235-0.097-0.352-0.023-0.074-0.04-0.151-0.069-0.223-0.046-0.113-0.106-0.218-0.165-0.323-0.035-0.063-0.064-0.132-0.104-0.192-0.074-0.112-0.161-0.214-0.249-0.315-0.037-0.042-0.068-0.089-0.107-0.13-0.109-0.113-0.231-0.212-0.357-0.307-0.025-0.02-0.047-0.042-0.073-0.061-0.134-0.094-0.277-0.172-0.426-0.244-0.025-0.012-0.049-0.029-0.074-0.041-0.132-0.059-0.271-0.101-0.411-0.14-0.051-0.015-0.099-0.035-0.15-0.047-0.113-0.025-0.23-0.034-0.348-0.046-0.086-0.009-0.17-0.024-0.257-0.026-0.02 0-0.037-0.006-0.057-0.006H46.57L34.028 35.003l-0.283-3.835c0-3.946-3.423-7.145-7.646-7.145h-0.382c-4.224 0-7.647 3.198-7.647 7.145l-2.294 31.123h2.637v0.261l-2.69 28.81c-0.19 2.027 1.299 3.822 3.326 4.012 0.116 0.012 0.232 0.016 0.347 0.016 1.88 0 3.486-1.432 3.664-3.341l2.604-27.892h0.489l2.604 27.892c0.179 1.909 1.784 3.341 3.664 3.341 0.115 0 0.23-0.004 0.348-0.016 2.025-0.189 3.514-1.984 3.326-4.012l-2.691-28.811v-0.26h2.637l-1.096-14.878 6.369 7.452c0.73 0.853 1.763 1.291 2.803 1.291 0.625 0 1.249-0.161 1.813-0.481h2.875l4.575 26.837c0.003 0.017 0.01 0.031 0.013 0.048 0.016 0.084 0.042 0.162 0.064 0.244 0.028 0.103 0.056 0.206 0.095 0.304 0.029 0.074 0.066 0.145 0.102 0.217 0.047 0.097 0.096 0.192 0.153 0.282 0.041 0.065 0.087 0.126 0.133 0.188 0.064 0.086 0.131 0.169 0.204 0.247 0.053 0.058 0.107 0.111 0.165 0.164 0.077 0.071 0.157 0.137 0.242 0.199 0.063 0.048 0.127 0.095 0.195 0.138 0.089 0.056 0.182 0.104 0.276 0.149 0.071 0.035 0.14 0.071 0.213 0.101 0.11 0.043 0.225 0.075 0.34 0.105 0.064 0.017 0.126 0.039 0.191 0.052 0.185 0.036 0.374 0.058 0.566 0.058 0.001 0 0.001 0 0.002 0s0.001 0 0.002 0h25.848c1.657 0 3-1.343 3-3S83.841 79.008 82.184 79.008z" fill="#ffffff" data-fill-palette-color="accent"></path><circle cx="59.85" cy="90.722" r="4.7" fill="#ffffff" data-fill-palette-color="accent"></circle><circle cx="78.723" cy="90.722" r="4.7" fill="#ffffff" data-fill-palette-color="accent"></circle><path d="M62.134 77.805h16.657c0.954 0 1.727-0.773 1.727-1.727V59.42c0-0.953-0.772-1.727-1.727-1.727H62.134c-0.953 0-1.727 0.773-1.727 1.727v16.658C60.407 77.031 61.181 77.805 62.134 77.805z" fill="#ffffff" data-fill-palette-color="accent"></path></g></svg></g></svg></g><g><rect width="139.3376233257377" height="6.060196780347619" y="123.57417722268296" x="256.1823766742623" fill="#ffffff" data-fill-palette-color="accent"></rect><rect width="139.3376233257377" height="6.060196780347619" y="123.57417722268296" x="0" fill="#ffffff" data-fill-palette-color="accent"></rect><rect width="139.3376233257377" height="6.060196780347619" y="111.45378366198773" x="256.1823766742623" fill="#ffffff" data-fill-palette-color="accent"></rect><rect width="139.3376233257377" height="6.060196780347619" y="111.45378366198773" x="0" fill="#ffffff" data-fill-palette-color="accent"></rect></g></svg></g><defs></defs></svg><rect width="395.52" height="241.02435971991045" fill="none" stroke="none" visibility="hidden"></rect></g></svg></g></svg>